<svg width="142" height="48" viewBox="0 0 157 53" fill="none" xmlns="http://www.w3.org/2000/svg">
<g clip-path="url(#clip0_1596_400)">
<path d="M60.8438 21.9216V0.611546H66.403V8.54545H66.5323L71.8329 0.611546H77.9093L71.639 9.26671L79.1375 21.9216H73.0611L68.4069 13.7254L66.403 16.6105V21.9216H60.8438Z" fill="white"/>
<path d="M85.2838 22.315C83.5169 22.315 82.2348 21.714 81.4376 20.5119C80.6403 19.2879 80.2417 17.6596 80.2417 15.6269V5.52925H85.8009V14.9057C85.8009 15.9548 85.9302 16.6542 86.1888 17.0039C86.4689 17.3536 86.8783 17.5285 87.417 17.5285C87.9341 17.5285 88.365 17.4192 88.7098 17.2006C89.0546 16.982 89.3993 16.6105 89.7441 16.0859V5.52925H95.3033V21.9216H90.7784L90.3905 19.7578H90.2612C89.6148 20.5447 88.893 21.1676 88.0957 21.6265C87.32 22.0855 86.3827 22.315 85.2838 22.315Z" fill="white"/>
<path d="M108.042 22.315C106.555 22.315 105.198 21.5938 103.969 20.1512H103.84L103.388 21.9216H99.0566V0H104.616V4.41457L104.487 6.77507C105.672 5.68225 106.997 5.13584 108.462 5.13584C109.733 5.13584 110.843 5.48554 111.791 6.18495C112.739 6.8625 113.472 7.82418 113.989 9.07C114.506 10.294 114.765 11.7474 114.765 13.4304C114.765 15.31 114.441 16.9165 113.795 18.2497C113.149 19.583 112.308 20.5993 111.274 21.2987C110.261 21.9763 109.184 22.315 108.042 22.315ZM106.684 17.7252C107.331 17.7252 107.891 17.4192 108.365 16.8072C108.839 16.1952 109.076 15.1024 109.076 13.5287C109.076 12.1736 108.882 11.201 108.494 10.6109C108.128 10.0208 107.568 9.7257 106.814 9.7257C106.404 9.7257 106.027 9.81312 105.682 9.98798C105.338 10.1628 104.982 10.4688 104.616 10.9059V16.9383C104.939 17.2225 105.273 17.4301 105.618 17.5612C105.984 17.6705 106.34 17.7252 106.684 17.7252Z" fill="white"/>
<path d="M125.304 22.315C123.731 22.315 122.309 21.9763 121.037 21.2987C119.788 20.6212 118.797 19.6485 118.064 18.3809C117.331 17.0913 116.965 15.5395 116.965 13.7254C116.965 11.9551 117.331 10.436 118.064 9.16836C118.818 7.87883 119.788 6.88436 120.973 6.18495C122.158 5.48554 123.408 5.13584 124.722 5.13584C126.317 5.13584 127.631 5.49647 128.665 6.21773C129.721 6.91714 130.497 7.8679 130.992 9.07C131.509 10.2721 131.768 11.6054 131.768 13.0697C131.768 13.5506 131.736 14.0205 131.671 14.4795C131.628 14.9166 131.585 15.2335 131.542 15.4302H122.33C122.589 16.4138 123.052 17.1023 123.72 17.4957C124.388 17.8672 125.175 18.053 126.08 18.053C127.114 18.053 128.213 17.7252 129.376 17.0695L131.186 20.4135C130.324 21.0255 129.355 21.4954 128.277 21.8233C127.2 22.1511 126.209 22.315 125.304 22.315ZM122.266 11.7584H127.049C127.049 11.1245 126.888 10.5781 126.564 10.1191C126.263 9.63827 125.692 9.39785 124.851 9.39785C124.248 9.39785 123.709 9.58363 123.235 9.95519C122.761 10.3268 122.438 10.9278 122.266 11.7584Z" fill="white"/>
<path d="M60.8438 51.5756V30.2274H66.2711V38.1755H66.3973L71.5722 30.2274H77.5044L71.3829 38.898L78.7034 51.5756H72.7712L68.2274 43.3647L66.2711 46.2549V51.5756H60.8438Z" fill="#3F83F8"/>
<path d="M80.2158 51.5756V35.1539H85.6432V51.5756H80.2158ZM82.9295 33.1176C82.046 33.1176 81.3307 32.8658 80.7838 32.3622C80.2369 31.8367 79.9634 31.147 79.9634 30.2931C79.9634 29.4392 80.2369 28.7604 80.7838 28.2568C81.3307 27.7313 82.046 27.4686 82.9295 27.4686C83.813 27.4686 84.5282 27.7313 85.0752 28.2568C85.6221 28.7604 85.8956 29.4392 85.8956 30.2931C85.8956 31.147 85.6221 31.8367 85.0752 32.3622C84.5282 32.8658 83.813 33.1176 82.9295 33.1176Z" fill="#3F83F8"/>
<path d="M95.8063 51.9697C93.7658 51.9697 92.2828 51.3566 91.3572 50.1304C90.4526 48.8824 90.0004 47.2621 90.0004 45.2696V39.5549H87.9178V35.351L90.3159 35.1539L90.947 30.8843H95.4277V35.1539H99.0249V39.5549H95.4277V45.1711C95.4277 46.0688 95.617 46.6928 95.9957 47.0432C96.3743 47.3935 96.8161 47.5687 97.3209 47.5687C97.5734 47.5687 97.8153 47.5468 98.0467 47.503C98.2991 47.4373 98.52 47.3716 98.7093 47.3059L99.5297 51.3785C99.13 51.5099 98.6252 51.6412 98.0151 51.7726C97.4051 51.904 96.6688 51.9697 95.8063 51.9697Z" fill="#3F83F8"/>
<g clip-path="url(#clip1_1596_400)">
<path d="M23.2276 0.896606H0.230469V52H23.2276V0.896606Z" fill="#3F83F8"/>
<path d="M29.7225 22.5712L23.2402 26.4545H38.5057L51.3341 22.5712H29.7225Z" fill="#7297FF"/>
<path d="M51.3348 22.5712H29.7231L26.7294 24.3578L23.2285 26.4545V13.688L26.7294 6.78982L29.7231 0.896606L51.3348 22.5712Z" fill="#3158AD"/>
<path d="M29.7225 30.3254L23.2402 26.4545H38.5057L51.3341 30.3254H29.7225Z" fill="#4268D0"/>
<path d="M51.3348 30.3254L29.7231 52L26.7294 46.1068L23.2285 39.2211V26.4545L26.7294 28.5389L29.7231 30.3254H51.3348Z" fill="#3158AD"/>
<path d="M51.3343 30.3254H29.7227V52H51.3343V30.3254Z" fill="#A4CAFE"/>
<path d="M51.3343 0.896606H29.7227V22.5712H51.3343V0.896606Z" fill="#E1EFFE"/>
</g>
</g>
<rect x="104.27" y="34" width="42" height="18" rx="4" fill="#262B3B"/>
<rect x="104.77" y="34.5" width="41" height="17" rx="3.5" stroke="white" stroke-opacity="0.1"/>
<path d="M110.82 47V39.7273H113.853C114.397 39.7273 114.853 39.8042 115.22 39.9581C115.589 40.112 115.866 40.3274 116.051 40.6044C116.238 40.8814 116.331 41.2022 116.331 41.5668C116.331 41.8438 116.273 42.0911 116.157 42.3089C116.041 42.5244 115.882 42.7031 115.678 42.8452C115.474 42.9872 115.239 43.0866 114.971 43.1435V43.2145C115.265 43.2287 115.536 43.308 115.784 43.4524C116.035 43.5968 116.237 43.7981 116.388 44.0561C116.54 44.3118 116.615 44.6148 116.615 44.9652C116.615 45.3558 116.516 45.705 116.317 46.0128C116.118 46.3182 115.831 46.5597 115.454 46.7372C115.078 46.9124 114.621 47 114.083 47H110.82ZM112.578 45.5831H113.664C114.046 45.5831 114.326 45.5109 114.506 45.3665C114.688 45.2221 114.779 45.0208 114.779 44.7628C114.779 44.5758 114.736 44.4148 114.648 44.2798C114.56 44.1425 114.436 44.0372 114.275 43.9638C114.114 43.888 113.921 43.8501 113.696 43.8501H112.578V45.5831ZM112.578 42.7173H113.551C113.743 42.7173 113.913 42.6854 114.062 42.6214C114.211 42.5575 114.327 42.4652 114.41 42.3445C114.495 42.2237 114.538 42.0781 114.538 41.9077C114.538 41.6638 114.452 41.4721 114.279 41.3324C114.106 41.1927 113.873 41.1229 113.579 41.1229H112.578V42.7173ZM118.461 47V39.7273H123.532V41.1548H120.218V42.6463H123.272V44.0774H120.218V45.5724H123.532V47H118.461ZM125.395 41.1548V39.7273H131.542V41.1548H129.336V47H127.603V41.1548H125.395ZM134.065 47H132.176L134.63 39.7273H136.97L139.424 47H137.534L135.826 41.5597H135.77L134.065 47ZM133.813 44.1378H137.762V45.473H133.813V44.1378Z" fill="white"/>
<defs>
<clipPath id="clip0_1596_400">
<rect width="157" height="52" fill="white"/>
</clipPath>
<clipPath id="clip1_1596_400">
<rect width="51.1034" height="51.1034" fill="white" transform="translate(0.230469 0.896606)"/>
</clipPath>
</defs>
</svg>
