<?xml version="1.0" encoding="UTF-8"?>
<svg id="Layer_1" data-name="Layer 1" xmlns="http://www.w3.org/2000/svg" viewBox="0 0 768.08 254.42">
  <defs>
    <style>
      .cls-1 {
        fill: #ff7300;
      }

      .cls-2 {
        fill: #313138;
      }
    </style>
  </defs>
  <g>
    <path class="cls-2" d="M345.55,72.76l-1.33-19.77c-.33-4.81-2.99-6.81-7.47-6.81h-77.92c-3.98,0-4.48,3.65-2.49,6.32q5.98,8.14,5.98,23.91v57.99q0,15.77-5.98,23.91c-2,2.66-1.49,6.32,2.49,6.32h38.89c3.98,0,4.48-3.65,2.49-6.32q-5.98-8.14-5.98-23.91v-18.94c0-2.16.33-3.33.83-3.33,11.29,0,19.27,2.32,29.08,10.64,3.31,2.65,6.81,2,6.81-2.99v-25.92c0-4.99-3.49-5.65-6.81-2.99-9.81,8.32-17.79,9.97-29.08,9.97-.5,0-.83-1.17-.83-3.33v-29.56c0-5.82,1.15-10.96,13.79-10.96,9.8,0,16.94,1.66,25.08,14.46,4.99,7.31,5.65,8.63,8.3,8.63,2.83,0,4.5-2.32,4.16-7.31Z"/>
    <path class="cls-2" d="M629.8,151.83c-4.5.67-7.31-.33-7.31-9.29V49.01c0-9.31-4.16-9.81-9.14-8.64l-23.59,6.14c-4.16.99-3.49,4.99-2.16,7.98,3.15,6.14,3.65,7.15,3.82,16.11,0,2.49-1.33,3.49-3.65,2.66-3.15-1.17-6.98-1.83-11.96-1.83-24.59,0-41.53,16.94-41.53,49.18,0,24.92,9.47,45.84,35.72,45.84,9.63,0,17.11-2.99,22.76-8.64,1.33-1.49,2.32-1.15,3.65.84,3.65,5.64,9.63,7.8,16.44,7.8,8.32,0,16.78-4.48,20.27-8.3,2.83-2.83.99-6.64-3.31-6.32ZM598.31,124.49c-3.18,11.94-15.43,19.03-27.36,15.86-11.94-3.18-19.03-15.43-15.86-27.36,3.18-11.94,15.43-19.03,27.36-15.86,11.94,3.18,19.03,15.43,15.86,27.36Z"/>
    <path class="cls-2" d="M667.48,90.71c0-4.48,2.99-7.81,8.32-7.81,8.8,0,14.12,5.98,17.45,9.63,6.81,7.49,8.63,12.46,12.95,12.46,4.66,0,5.49-5.8,5.82-12.12,1.01-21.26-21.59-21.43-32.55-21.43-17.79,0-42.04,6.81-42.7,29.24-.99,31.06,47.85,30.07,47.85,44.69.16,4.81-2.83,8.14-9.81,8.14s-16.44-4.66-21.93-10.8c-9.47-10.62-10.14-12.62-13.45-12.62-2.99,0-4.32,5.15-2.99,15.29,2.65,17.27,18.27,20.92,33.22,20.92,26.09,0,46.02-11.29,46.02-32.06,0-31.4-48.18-27.73-48.18-43.52Z"/>
    <path class="cls-2" d="M765.5,158.31c-5.98-8.14-5.82-8.14-5.98-23.91v-53.17c0-9.47-4.16-9.97-9.13-8.8l-23.6,6.14c-4.14,1.01-3.49,4.99-2.16,7.98q3.83,7.31,3.83,21.77v26.09q0,15.77-5.99,23.91c-1.98,2.66-1.33,6.32,2.5,6.32h38.04c3.98,0,4.48-3.65,2.49-6.32Z"/>
  </g>
  <path class="cls-2" d="M191.95,166.01c-8.7,15.24-21.05,27.73-35.58,36.62l-89.39,51.79,21.67-37.66c-4.11-.57-8.22-1.4-12.33-2.49-27.4-7.3-49.25-25.01-62.44-47.75C.69,143.78-3.82,115.99,3.48,88.57,18.08,33.75,74.36,1.14,129.18,15.74c27.42,7.3,49.28,25.03,62.46,47.78l-88.96,51.54,89.27,50.94Z"/>
  <circle class="cls-1" cx="200.15" cy="116.26" r="26.7"/>
  <circle class="cls-1" cx="741.37" cy="26.71" r="26.7"/>
  <path class="cls-2" d="M388.58,71.43c-30.23,0-47.35,22.09-47.35,47.85,0,27.57,17.95,47.01,45.53,47.01s44.85-19.93,44.85-48.18c0-25.24-15.29-46.68-43.03-46.68ZM409.43,124.49c-3.18,11.94-15.43,19.03-27.36,15.86-11.94-3.18-19.03-15.43-15.86-27.36,3.18-11.94,15.43-19.03,27.36-15.86,11.94,3.18,19.04,15.43,15.86,27.36Z"/>
  <path class="cls-2" d="M485.1,71.43c-30.23,0-47.35,22.09-47.35,47.85,0,27.57,17.95,47.01,45.52,47.01s44.86-19.93,44.86-48.18c0-25.24-15.29-46.68-43.03-46.68ZM503.86,124.49c-3.18,11.94-15.42,19.03-27.36,15.86-11.93-3.18-19.03-15.43-15.85-27.36,3.18-11.94,15.42-19.03,27.36-15.86,11.93,3.18,19.03,15.43,15.85,27.36Z"/>
</svg>