<svg width="256" height="397" viewBox="0 0 256 397" fill="none" xmlns="http://www.w3.org/2000/svg">
<path d="M214.751 102.099C218.693 98.4821 227.522 93.4185 231.306 102.099C236.037 112.95 214.751 112.95 214.751 102.099Z" fill="#FF7300"/>
<path d="M142.555 0.379929C145.983 4.4863 150.629 13.5427 141.781 16.9173C130.722 21.1355 131.716 -0.126796 142.555 0.379929Z" fill="#FF7300"/>
<path d="M255.687 128.659C250.802 134.338 239.663 142.475 234.18 129.589C227.326 113.482 254.978 112.285 255.687 128.659Z" fill="#FF7300"/>
<path d="M31.9023 25.2224C50.5119 22.2316 69.1218 21.0685 87.7314 21.7331C102.188 22.2404 116.645 23.2326 131.102 24.7078C129.49 32.8792 131.216 41.5506 136.292 48.5281C134.875 49.4957 133.527 50.6088 132.269 51.8669C121.452 62.6834 121.368 80.1369 132.08 90.8494C138.634 97.4034 147.712 99.9153 156.249 98.4001C156.762 104.628 159.389 110.698 164.135 115.443C174.744 126.052 191.965 126.071 202.803 115.562L202.805 115.565C207.221 119.981 212.668 122.744 218.387 123.861C218.679 128.18 218.829 132.52 218.829 136.881C219.161 148.844 219.494 160.974 219.826 173.269V196.199C219.826 203.842 219.66 211.486 219.328 219.129L217.334 262.994C217.002 270.637 216.836 278.447 216.836 286.423C216.836 294.066 216.503 301.709 215.839 309.352C215.507 316.995 214.343 324.639 212.35 332.282C210.688 339.925 207.697 347.069 203.377 353.716C200.386 358.7 196.897 363.353 192.909 367.674C188.921 371.994 184.435 375.649 179.45 378.639C169.481 384.289 158.514 388.277 146.551 390.603C134.92 392.929 123.289 394.591 111.658 395.588C105.677 395.92 99.6945 396.086 93.7129 396.086H55.3301C48.3516 396.418 41.5388 396.418 34.8926 396.086C31.2374 395.753 27.4161 395.089 23.4287 394.093C19.7733 393.428 17.1147 391.766 15.4531 389.107C11.4654 382.461 9.30503 375.317 8.97266 367.674C8.64034 359.698 8.64034 351.888 8.97266 344.245V313.34C9.30496 303.038 9.13824 292.57 8.47363 281.936C7.809 272.964 7.1451 263.991 6.48047 255.018C6.14815 245.714 5.81571 236.575 5.4834 227.602C5.15109 218.298 4.98438 209.159 4.98438 200.186C5.31668 190.882 5.15095 181.743 4.48633 172.77C4.15401 165.792 3.48912 158.979 2.49219 152.333C1.82758 145.354 1.49512 138.376 1.49512 131.397C0.83049 118.437 0.498047 105.477 0.498047 92.5163C0.83036 79.5561 0.664628 66.5958 0 53.6355C3.66658e-06 50.977 0.332445 47.3211 0.99707 42.6687C1.66168 37.6845 2.99075 34.3616 4.98438 32.6999C5.98132 31.703 7.64354 30.8724 9.96973 30.2078C12.6282 29.2108 15.2868 28.3792 17.9453 27.7146C20.6037 27.05 23.2625 26.5518 25.9209 26.2195C28.5792 25.5549 30.5731 25.2224 31.9023 25.2224ZM109.399 120.689C105.53 120.689 101.66 120.848 97.79 121.167C93.9203 121.326 90.1304 121.803 86.4219 122.599C83.8422 123.236 81.3432 124.032 78.9248 124.987C76.5064 125.783 74.3293 127.057 72.3945 128.807C69.4923 131.673 67.5573 134.936 66.5898 138.597C65.6224 141.463 65.0577 144.408 64.8965 147.432C64.7353 150.457 64.6543 153.481 64.6543 156.506C64.6543 160.644 64.7353 164.863 64.8965 169.161C65.0577 173.3 65.1387 177.518 65.1387 181.816C65.4612 199.645 65.6221 217.474 65.6221 235.302C65.6221 252.972 65.9449 270.801 66.5898 288.789C66.7511 292.45 67.7186 295.236 69.4922 297.146C71.2658 298.897 73.3617 300.092 75.7803 300.728C78.3601 301.524 81.1016 301.843 84.0039 301.683C87.0672 301.683 89.8081 301.524 92.2266 301.206C94.4839 301.047 96.8226 300.489 99.2412 299.534C101.66 298.738 103.433 297.305 104.562 295.236C105.851 293.008 106.497 290.62 106.497 288.073C106.658 285.526 106.738 282.978 106.738 280.431C106.9 273.746 106.82 267.139 106.497 260.613C106.175 254.087 106.175 247.48 106.497 240.795C106.658 239.84 106.738 238.486 106.738 236.735C106.738 234.984 107.142 233.791 107.948 233.154C108.432 232.836 109.238 232.677 110.366 232.677H113.027C115.285 232.836 117.542 232.995 119.799 233.154C122.056 233.313 124.314 233.313 126.571 233.154C128.829 233.154 130.764 232.596 132.376 231.482C133.666 230.686 134.714 229.493 135.521 227.901C136.327 226.15 136.89 224.319 137.213 222.409C137.535 220.34 137.697 218.27 137.697 216.201C137.859 214.132 137.859 212.38 137.697 210.947C137.375 207.923 136.326 205.535 134.553 203.784C132.94 202.033 130.924 200.999 128.506 200.68C126.571 200.362 124.072 200.282 121.009 200.441C118.106 200.441 115.607 200.521 113.511 200.68C110.931 200.68 109.077 200.282 107.948 199.486C106.82 198.69 106.013 197.655 105.529 196.382C105.207 194.949 105.126 193.357 105.287 191.606C105.448 189.855 105.448 188.104 105.287 186.353C105.287 184.921 105.207 183.17 105.046 181.1V167.49C105.207 165.261 105.368 163.43 105.529 161.998C105.691 159.451 106.416 157.541 107.706 156.267C108.996 154.835 110.366 154.198 111.817 154.357C113.268 154.357 114.559 155.073 115.688 156.506C116.816 157.779 117.381 159.849 117.381 162.715V176.563C117.542 179.428 117.622 182.135 117.622 184.681C117.783 187.228 118.025 188.9 118.348 189.696C119.315 192.402 121.331 194.153 124.395 194.949C125.846 195.267 127.62 195.586 129.716 195.904C131.812 196.222 133.908 196.382 136.004 196.382C138.1 196.382 140.116 196.222 142.051 195.904C144.147 195.586 145.84 195.029 147.13 194.233C149.226 192.96 150.677 191.049 151.483 188.503C152.29 185.797 152.853 183.17 153.176 180.623C153.659 175.688 154.063 170.833 154.386 166.057C154.708 161.123 154.95 156.187 155.111 151.253C155.273 147.592 155.111 143.93 154.627 140.269C154.304 136.449 153.095 133.026 150.999 130.002C150.193 128.887 148.983 127.852 147.371 126.897C145.92 125.942 144.308 125.146 142.534 124.51C140.761 123.714 138.987 123.077 137.213 122.599C135.439 122.122 133.827 121.803 132.376 121.644C128.668 121.008 124.878 120.689 121.009 120.689H109.399Z" fill="#FF7300"/>
</svg>
