<?xml version="1.0" encoding="UTF-8"?>
<svg id="Layer_1" data-name="Layer 1" xmlns="http://www.w3.org/2000/svg" viewBox="0 0 613.79 157.9">
  <defs>
    <style>
      .cls-1 {
        fill: #ff7300;
      }

      .cls-2 {
        fill: #313138;
      }
    </style>
  </defs>
  <path class="cls-2" d="M267.25,41.86c6.07,0,11.63,1.04,16.69,3.11,5.06,2.08,9.42,4.95,13.1,8.62,3.67,3.67,6.55,8.07,8.62,13.18,2.08,5.11,3.11,10.7,3.11,16.77s-1.04,11.66-3.11,16.77c-2.08,5.11-4.95,9.5-8.62,13.18-3.67,3.67-8.04,6.55-13.1,8.62-5.06,2.08-10.62,3.11-16.69,3.11s-11.63-1.04-16.69-3.11c-5.06-2.08-9.42-4.95-13.1-8.62s-6.55-8.07-8.62-13.18c-2.08-5.11-3.11-10.7-3.11-16.77s1.04-11.66,3.11-16.77c2.08-5.11,4.95-9.5,8.62-13.18,3.67-3.67,8.04-6.55,13.1-8.62,5.06-2.08,10.62-3.11,16.69-3.11ZM267.25,105.91c2.66,0,5.24-.5,7.75-1.52,2.5-1.01,4.71-2.47,6.63-4.39,1.92-1.92,3.43-4.26,4.55-7.03,1.12-2.77,1.68-5.91,1.68-9.42s-.56-6.65-1.68-9.42c-1.12-2.77-2.64-5.11-4.55-7.03s-4.13-3.38-6.63-4.39c-2.5-1.01-5.09-1.52-7.75-1.52s-5.38.51-7.83,1.52c-2.45,1.01-4.63,2.48-6.55,4.39-1.92,1.92-3.43,4.26-4.55,7.03-1.12,2.77-1.68,5.91-1.68,9.42s.56,6.66,1.68,9.42c1.12,2.77,2.64,5.11,4.55,7.03,1.92,1.92,4.1,3.38,6.55,4.39,2.45,1.01,5.06,1.52,7.83,1.52Z"/>
  <path class="cls-2" d="M359.24,41.86c6.07,0,11.63,1.04,16.69,3.11,5.06,2.08,9.42,4.95,13.1,8.62,3.67,3.67,6.55,8.07,8.62,13.18,2.08,5.11,3.11,10.7,3.11,16.77s-1.04,11.66-3.11,16.77c-2.08,5.11-4.95,9.5-8.62,13.18-3.67,3.67-8.04,6.55-13.1,8.62-5.06,2.08-10.62,3.11-16.69,3.11s-11.63-1.04-16.69-3.11c-5.06-2.08-9.42-4.95-13.1-8.62s-6.55-8.07-8.62-13.18c-2.08-5.11-3.11-10.7-3.11-16.77s1.04-11.66,3.11-16.77c2.08-5.11,4.95-9.5,8.62-13.18,3.67-3.67,8.04-6.55,13.1-8.62,5.06-2.08,10.62-3.11,16.69-3.11ZM359.24,105.91c2.66,0,5.24-.5,7.75-1.52,2.5-1.01,4.71-2.47,6.63-4.39,1.92-1.92,3.43-4.26,4.55-7.03,1.12-2.77,1.68-5.91,1.68-9.42s-.56-6.65-1.68-9.42c-1.12-2.77-2.64-5.11-4.55-7.03s-4.13-3.38-6.63-4.39c-2.5-1.01-5.09-1.52-7.75-1.52s-5.38.51-7.83,1.52c-2.45,1.01-4.63,2.48-6.55,4.39s-3.43,4.26-4.55,7.03c-1.12,2.77-1.68,5.91-1.68,9.42s.56,6.66,1.68,9.42c1.12,2.77,2.64,5.11,4.55,7.03,1.92,1.92,4.1,3.38,6.55,4.39,2.45,1.01,5.06,1.52,7.83,1.52Z"/>
  <path class="cls-2" d="M531.2,125.23c-5.11,0-9.66-.64-13.66-1.92-3.99-1.28-7.45-2.95-10.38-5.03-2.93-2.08-5.41-4.47-7.43-7.19-1.07-1.43-2-2.88-2.81-4.32-1.12-2.02-.26-4.57,1.86-5.48l11.7-5c1.75-.75,3.82-.13,4.81,1.5,1.58,2.61,3.5,4.65,5.75,6.11,3.03,1.97,6.41,2.95,10.14,2.95s6.87-.69,9.1-2.08c2.24-1.38,3.35-3.03,3.35-4.95,0-2.13-.93-3.86-2.8-5.19-1.86-1.33-5.09-2.53-9.66-3.59l-11.02-2.4c-2.45-.53-4.98-1.38-7.59-2.55-2.61-1.17-4.98-2.66-7.11-4.47-2.13-1.81-3.89-3.99-5.27-6.55-1.39-2.56-2.08-5.53-2.08-8.94,0-3.83.82-7.24,2.48-10.22,1.65-2.98,3.91-5.51,6.79-7.59,2.88-2.08,6.25-3.67,10.14-4.79,3.89-1.12,8.07-1.68,12.54-1.68,7.45,0,14.11,1.47,19.96,4.39,4.55,2.28,8.16,5.59,10.85,9.95,1.26,2.04.37,4.72-1.85,5.63l-11.14,4.54c-1.63.66-3.45.07-4.49-1.34-1.33-1.8-3.01-3.19-5.02-4.16-2.87-1.38-5.75-2.08-8.62-2.08s-5.59.61-7.83,1.84c-2.24,1.22-3.35,2.79-3.35,4.71,0,1.81.93,3.25,2.79,4.31,1.86,1.07,4.39,2.02,7.59,2.87l11.98,2.87c7.99,1.92,13.92,4.98,17.81,9.18,3.89,4.21,5.83,9.18,5.83,14.93,0,3.41-.8,6.66-2.4,9.74-1.6,3.09-3.86,5.83-6.79,8.22-2.93,2.4-6.44,4.29-10.54,5.67-4.1,1.38-8.65,2.08-13.66,2.08Z"/>
  <path class="cls-1" d="M588.25,33.88c-1.82,0-3.56-.34-5.22-1.04-1.65-.69-3.09-1.65-4.31-2.88-1.23-1.22-2.18-2.64-2.87-4.23-.69-1.6-1.04-3.35-1.04-5.27s.34-3.67,1.04-5.27c.69-1.6,1.65-3.01,2.87-4.23s2.66-2.18,4.31-2.87c1.65-.69,3.38-1.04,5.19-1.04,3.73,0,6.92,1.3,9.58,3.91,2.66,2.61,3.99,5.78,3.99,9.5,0,3.3-1.05,6.17-3.14,8.59-2.6,3.01-6.43,4.82-10.41,4.82Z"/>
  <rect class="cls-2" x="577.83" y="44.42" width="20.92" height="78.26" rx="3.65" ry="3.65"/>
  <g>
    <g>
      <path class="cls-2" d="M110.47,102.08c0,.79-.27,1.53-.73,2.1-.02.04-.05.07-.08.1-4.22,5.35-8.76,10.17-13.52,14.5,0,0,0,.01-.02.01-15.79,14.39-33.91,23.46-50.18,29.3h0c-.09.04-.19.07-.28.11l.02-.04,9.11-15.83c1.13-1.96.04-4.45-2.16-4.95-.68-.15-1.36-.32-2.04-.51-14.62-3.89-26.27-13.34-33.3-25.47-7.04-12.13-9.44-26.95-5.54-41.58C19.52,30.59,49.53,13.2,78.77,20.99c13.39,3.56,24.29,11.79,31.43,22.46,1.08,1.61.56,3.8-1.12,4.77l-39.38,22.82c-2.25,1.3-2.23,4.54.02,5.83l38.57,22.01.81.46c.83.63,1.36,1.62,1.36,2.74Z"/>
      <path class="cls-2" d="M45.94,148.1l-.34.19.06-.09c.09-.04.19-.07.28-.1Z"/>
      <circle class="cls-1" cx="116.62" cy="74.61" r="14.24"/>
    </g>
    <path class="cls-2" d="M109.1,99.34l-.81-.46c.29.12.57.27.81.46Z"/>
  </g>
  <g>
    <path class="cls-2" d="M207.95,41.45h-46.56c-2.38,0-4.31,1.93-4.31,4.31v75.12c0,2.38,1.93,4.31,4.31,4.31h11.78c2.38,0,4.31-1.93,4.31-4.31v-26.88h26.98c2.38,0,4.31-1.93,4.31-4.31v-11.01c0-2.38-1.93-4.31-4.31-4.31h-26.98v-13.3h30.47c2.38,0,4.31-1.93,4.31-4.31v-11.01c0-2.38-1.93-4.31-4.31-4.31Z"/>
    <path class="cls-2" d="M485.04,66.54c-1.98-5.12-4.88-9.59-8.61-13.29-3.73-3.69-8.29-6.58-13.56-8.6-5.23-2-11.17-3.01-17.64-3.01h-24.31c-2.56,0-4.63,2.07-4.63,4.63v74.09c0,2.56,2.07,4.63,4.63,4.63h24.31c6.49,0,12.42-1.01,17.64-3.01,5.26-2.01,9.82-4.88,13.55-8.54,3.74-3.66,6.64-8.12,8.62-13.25,1.96-5.08,2.96-10.76,2.96-16.88s-1-11.69-2.96-16.77ZM435.86,60.45h8.71c4.02,0,7.58.56,10.6,1.67,2.95,1.08,5.43,2.61,7.37,4.55,1.93,1.93,3.41,4.31,4.38,7.07,1,2.84,1.51,6.07,1.51,9.58s-.51,6.74-1.51,9.58c-.97,2.76-2.45,5.14-4.38,7.07-1.94,1.94-4.42,3.47-7.37,4.55-3.01,1.1-6.58,1.67-10.6,1.67h-8.71v-45.74Z"/>
  </g>
</svg>